<svg id="visual" viewBox="0 0 960 540" width="960" height="540" xmlns="http://www.w3.org/2000/svg" xmlns:xlink="http://www.w3.org/1999/xlink" version="1.1"><rect x="0" y="0" width="960" height="540" fill="#5F4DED"></rect><path d="M0 278L22.8 288.2C45.7 298.3 91.3 318.7 137 332.8C182.7 347 228.3 355 274 346.7C319.7 338.3 365.3 313.7 411.2 310C457 306.3 503 323.7 548.8 330.5C594.7 337.3 640.3 333.7 686 331.8C731.7 330 777.3 330 823 335.2C868.7 340.3 914.3 350.7 937.2 355.8L960 361L960 541L937.2 541C914.3 541 868.7 541 823 541C777.3 541 731.7 541 686 541C640.3 541 594.7 541 548.8 541C503 541 457 541 411.2 541C365.3 541 319.7 541 274 541C228.3 541 182.7 541 137 541C91.3 541 45.7 541 22.8 541L0 541Z" fill="#5f4ded"></path><path d="M0 332L22.8 329.8C45.7 327.7 91.3 323.3 137 327.7C182.7 332 228.3 345 274 348.7C319.7 352.3 365.3 346.7 411.2 352.8C457 359 503 377 548.8 377.2C594.7 377.3 640.3 359.7 686 357.3C731.7 355 777.3 368 823 370.3C868.7 372.7 914.3 364.3 937.2 360.2L960 356L960 541L937.2 541C914.3 541 868.7 541 823 541C777.3 541 731.7 541 686 541C640.3 541 594.7 541 548.8 541C503 541 457 541 411.2 541C365.3 541 319.7 541 274 541C228.3 541 182.7 541 137 541C91.3 541 45.7 541 22.8 541L0 541Z" fill="#5241bc"></path><path d="M0 388L22.8 391.7C45.7 395.3 91.3 402.7 137 397.8C182.7 393 228.3 376 274 373C319.7 370 365.3 381 411.2 391.2C457 401.3 503 410.7 548.8 414C594.7 417.3 640.3 414.7 686 415.7C731.7 416.7 777.3 421.3 823 414.3C868.7 407.3 914.3 388.7 937.2 379.3L960 370L960 541L937.2 541C914.3 541 868.7 541 823 541C777.3 541 731.7 541 686 541C640.3 541 594.7 541 548.8 541C503 541 457 541 411.2 541C365.3 541 319.7 541 274 541C228.3 541 182.7 541 137 541C91.3 541 45.7 541 22.8 541L0 541Z" fill="#43358d"></path><path d="M0 440L22.8 434.2C45.7 428.3 91.3 416.7 137 411C182.7 405.3 228.3 405.7 274 406.5C319.7 407.3 365.3 408.7 411.2 407.5C457 406.3 503 402.7 548.8 399.7C594.7 396.7 640.3 394.3 686 398.5C731.7 402.7 777.3 413.3 823 419.2C868.7 425 914.3 426 937.2 426.5L960 427L960 541L937.2 541C914.3 541 868.7 541 823 541C777.3 541 731.7 541 686 541C640.3 541 594.7 541 548.8 541C503 541 457 541 411.2 541C365.3 541 319.7 541 274 541C228.3 541 182.7 541 137 541C91.3 541 45.7 541 22.8 541L0 541Z" fill="#342960"></path><path d="M0 457L22.8 453.2C45.7 449.3 91.3 441.7 137 446.2C182.7 450.7 228.3 467.3 274 467C319.7 466.7 365.3 449.3 411.2 444C457 438.7 503 445.3 548.8 452.2C594.7 459 640.3 466 686 469.8C731.7 473.7 777.3 474.3 823 472.2C868.7 470 914.3 465 937.2 462.5L960 460L960 541L937.2 541C914.3 541 868.7 541 823 541C777.3 541 731.7 541 686 541C640.3 541 594.7 541 548.8 541C503 541 457 541 411.2 541C365.3 541 319.7 541 274 541C228.3 541 182.7 541 137 541C91.3 541 45.7 541 22.8 541L0 541Z" fill="#241e37"></path><path d="M0 470L22.8 474.8C45.7 479.7 91.3 489.3 137 495.7C182.7 502 228.3 505 274 506.5C319.7 508 365.3 508 411.2 504C457 500 503 492 548.8 486.7C594.7 481.3 640.3 478.7 686 477.7C731.7 476.7 777.3 477.3 823 482C868.7 486.7 914.3 495.3 937.2 499.7L960 504L960 541L937.2 541C914.3 541 868.7 541 823 541C777.3 541 731.7 541 686 541C640.3 541 594.7 541 548.8 541C503 541 457 541 411.2 541C365.3 541 319.7 541 274 541C228.3 541 182.7 541 137 541C91.3 541 45.7 541 22.8 541L0 541Z" fill="#121212"></path></svg>